<?xml version="1.0" encoding="utf-8"?>
<!-- Generator: Adobe Illustrator 23.1.1, SVG Export Plug-In . SVG Version: 6.00 Build 0)  -->
<svg version="1.1" id="Calque_1" xmlns="http://www.w3.org/2000/svg" xmlns:xlink="http://www.w3.org/1999/xlink" x="0px" y="0px"
	 viewBox="0 0 221 73" style="enable-background:new 0 0 221 73;" xml:space="preserve">
<style type="text/css">
	.st0{fill:#91AA9D;}
	.st1{fill:#193441;}
</style>
<g>
	<path class="st0" d="M41.7,49.6c0.5-1.2,0.9-2.5,1.4-3.9c0.5-1.4,1-2.8,1.4-4.3c0.5-1.5,0.9-3,1.4-4.5c0.4-1.5,0.8-3,1.2-4.5
		l-3-9.8c-0.2-0.7-0.2-1.3,0-1.8s0.6-0.9,1.1-1.3c0.5-0.3,1.1-0.6,1.8-0.8c0.7-0.2,1.5-0.2,2.2-0.2c0.7,0,1.3,0,1.8,0.1
		c0.5,0.1,1,0.2,1.4,0.4s0.7,0.4,1,0.8s0.5,0.8,0.6,1.3L63,49.6c0.5-1.3,1-2.7,1.5-4.1c0.5-1.5,1-3,1.5-4.6c0.5-1.6,1-3.1,1.4-4.7
		c0.5-1.6,0.8-3.2,1.2-4.7s0.6-3,0.8-4.4s0.3-2.7,0.3-3.9c0-1.4-0.1-2.5-0.3-3.4s-0.4-1.7-0.6-2.3s-0.4-1.1-0.6-1.5
		c-0.2-0.4-0.3-0.8-0.3-1.1c0-0.4,0.1-0.8,0.3-1.1c0.2-0.3,0.5-0.5,0.9-0.8c0.3-0.2,0.7-0.4,1.1-0.4s0.8-0.1,1.2-0.1
		c0.8,0,1.5,0.1,2.1,0.4c0.6,0.2,1,0.7,1.2,1.3c0.1,0.3,0.2,0.6,0.2,1s0.1,0.7,0.1,1c0,0.3,0,0.6,0,0.9c0,0.3,0,0.5,0,0.7
		c0,0.9-0.1,2-0.4,3.5c-0.3,1.5-0.7,3.2-1.1,5.1s-1,3.9-1.6,6.1s-1.3,4.3-1.9,6.5c-0.7,2.2-1.3,4.3-2,6.4c-0.7,2.1-1.3,4-1.9,5.8
		c-0.6,1.8-1.1,3.3-1.6,4.7c-0.5,1.3-0.8,2.3-1.1,3c-0.2,0.5-0.4,0.9-0.7,1.2c-0.3,0.3-0.6,0.5-1,0.7c-0.4,0.2-0.8,0.3-1.2,0.3
		c-0.4,0-0.9,0.1-1.3,0.1c-0.8,0-1.5-0.1-2-0.2c-0.5-0.2-0.9-0.4-1.2-0.6c-0.3-0.2-0.5-0.5-0.7-0.8c-0.1-0.3-0.3-0.5-0.3-0.8
		l-6.1-20.2c-0.7,2.2-1.4,4.4-2.1,6.6c-0.7,2.2-1.4,4.2-2,6c-0.6,1.8-1.2,3.4-1.7,4.8c-0.5,1.4-0.9,2.4-1.1,3
		c-0.2,0.5-0.5,0.9-0.8,1.2c-0.3,0.3-0.6,0.5-1,0.7c-0.4,0.2-0.7,0.3-1.2,0.3c-0.4,0-0.8,0.1-1.3,0.1c-0.8,0-1.5-0.1-2-0.2
		c-0.5-0.2-0.9-0.4-1.2-0.6c-0.3-0.2-0.5-0.5-0.7-0.8c-0.2-0.3-0.3-0.5-0.4-0.8l-11-36.7c-0.2-0.7-0.4-1.3-0.7-1.8
		c-0.2-0.5-0.5-0.9-0.9-1.2s-0.8-0.5-1.2-0.7c-0.5-0.1-1.1-0.2-1.8-0.2c-0.6,0-1.2,0.1-2,0.4c-0.8,0.3-1.5,0.7-2.2,1.2
		s-1.3,1.2-1.7,2s-0.7,1.8-0.7,2.8c0,0.7,0.1,1.2,0.3,1.6s0.4,0.7,0.6,0.9c0.2,0.2,0.5,0.3,0.7,0.4s0.4,0.1,0.5,0.1
		c0.5,0,0.9-0.1,1.3-0.3c0.3-0.2,0.6-0.4,0.9-0.6c0.3-0.2,0.5-0.4,0.8-0.6c0.2-0.2,0.5-0.3,0.8-0.3c0.2,0,0.5,0.1,0.8,0.2
		c0.3,0.1,0.5,0.3,0.8,0.5s0.4,0.6,0.6,1s0.2,0.9,0.2,1.5c0,0.8-0.2,1.5-0.5,2.1c-0.3,0.6-0.7,1.1-1.2,1.5c-0.5,0.4-1.1,0.7-1.7,0.9
		c-0.6,0.2-1.3,0.3-1.9,0.3c-1,0-1.9-0.2-2.6-0.5c-0.8-0.3-1.4-0.8-1.9-1.4c-0.5-0.6-0.9-1.3-1.2-2.1C8.2,28.8,8,28,8,27.1
		c0-2.1,0.4-4,1.2-5.6c0.8-1.6,1.9-2.9,3.3-4c1.4-1.1,2.9-1.9,4.6-2.4c1.7-0.5,3.5-0.8,5.3-0.8c2.1,0,3.7,0.3,5.1,0.9
		c1.3,0.6,2.4,1.4,3.2,2.4c0.8,1,1.5,2.1,1.9,3.3c0.5,1.2,0.9,2.4,1.3,3.6L41.7,49.6z"/>
	<path class="st0" d="M88.2,57.6c0,0.3,0,0.6-0.1,1c-0.1,0.4-0.3,0.7-0.6,1.1s-0.8,0.6-1.5,0.9c-0.6,0.2-1.5,0.4-2.6,0.4
		s-1.9-0.1-2.6-0.4c-0.6-0.3-1.1-0.6-1.4-0.9c-0.3-0.3-0.5-0.7-0.6-1.1s-0.1-0.7-0.1-0.9V33.8c0-0.6-0.1-1.1-0.4-1.6
		c-0.3-0.4-0.7-0.7-1.4-0.7c-0.3,0-0.6,0.1-0.9,0.2c-0.2,0.1-0.5,0.3-0.8,0.5l-0.6-0.8c0.5-0.4,1-0.8,1.6-1.2c0.6-0.4,1.2-0.7,1.9-1
		s1.4-0.5,2.2-0.7c0.8-0.2,1.6-0.3,2.5-0.3c1.3,0,2.4,0.2,3.1,0.5c0.7,0.4,1.3,0.8,1.6,1.3s0.6,1.1,0.6,1.7c0.1,0.6,0.1,1.1,0.1,1.6
		V57.6z M77.8,21.4c0-0.6,0.1-1.1,0.4-1.6c0.3-0.5,0.6-1,1.1-1.4c0.5-0.4,1-0.7,1.6-0.9c0.6-0.2,1.3-0.3,2-0.3c0.7,0,1.4,0.1,2,0.3
		c0.6,0.2,1.1,0.5,1.6,0.9c0.5,0.4,0.8,0.8,1.1,1.4s0.4,1.1,0.4,1.6c0,0.6-0.1,1.2-0.4,1.7c-0.3,0.5-0.6,1-1.1,1.3
		c-0.5,0.4-1,0.7-1.6,0.9s-1.3,0.3-2,0.3c-0.7,0-1.4-0.1-2-0.3s-1.1-0.5-1.6-0.9c-0.5-0.4-0.8-0.8-1.1-1.3
		C77.9,22.5,77.8,22,77.8,21.4z"/>
	<path class="st0" d="M105.9,30.9c-0.5,0-0.9,0.1-1.3,0.2c-0.4,0.1-0.8,0.3-1.1,0.6c-0.3,0.3-0.6,0.6-0.8,1
		c-0.2,0.4-0.3,0.9-0.3,1.5c0,0.8,0.3,1.6,0.9,2.4c0.6,0.8,1.3,1.6,2.2,2.5c0.9,0.9,1.8,1.7,2.8,2.7c1,0.9,2,1.9,2.8,2.9
		c0.9,1,1.6,2.1,2.2,3.3c0.6,1.2,0.9,2.4,0.9,3.7c0,1.5-0.3,2.8-0.8,3.9c-0.5,1.2-1.2,2.1-2.2,2.9s-2.1,1.4-3.4,1.8
		c-1.3,0.4-2.8,0.6-4.4,0.6c-1.4,0-2.7-0.2-3.9-0.6s-2.2-0.9-3.1-1.5c-0.9-0.6-1.7-1.2-2.3-1.9c-0.6-0.7-1.1-1.3-1.5-1.8l1.1-0.8
		c0.3,0.3,0.6,0.6,1,1c0.4,0.4,0.9,0.7,1.4,1c0.5,0.3,1,0.6,1.6,0.8s1.2,0.3,1.8,0.3c1.5,0,2.7-0.4,3.6-1.1s1.4-1.8,1.4-3.2
		c0-0.8-0.3-1.6-0.8-2.4c-0.5-0.8-1.2-1.7-1.9-2.6c-0.8-0.9-1.6-1.8-2.5-2.7c-0.9-0.9-1.7-1.9-2.5-2.9c-0.8-1-1.4-2-1.9-3.1
		s-0.8-2.2-0.8-3.3c0-1.3,0.3-2.4,0.8-3.4c0.5-1,1.2-1.8,2.1-2.4s1.9-1.1,3-1.4c1.1-0.3,2.3-0.5,3.5-0.5c1.4,0,2.6,0.1,3.8,0.4
		s2.1,0.6,2.9,1.1s1.4,1.1,1.9,1.9c0.4,0.8,0.7,1.6,0.7,2.7c0,0.8-0.3,1.5-0.8,2s-1.2,0.9-2.2,0.9c-0.9,0-1.6-0.2-2-0.6
		s-0.7-0.9-0.7-1.6c0-0.4,0.1-0.8,0.3-1c0.2-0.2,0.5-0.4,0.7-0.6c0.3-0.2,0.5-0.3,0.7-0.4c0.2-0.1,0.3-0.3,0.3-0.4
		c0-0.6-0.3-1-0.9-1.4S106.9,30.9,105.9,30.9z"/>
	<path class="st0" d="M128.8,34.3c0.8-1.1,1.6-2.1,2.6-2.9c0.4-0.4,0.8-0.7,1.3-1.1c0.5-0.3,1-0.7,1.5-0.9c0.5-0.3,1.1-0.5,1.7-0.7
		s1.2-0.2,1.9-0.2c1.4,0,2.6,0.3,3.7,0.8s2,1.4,2.7,2.7c0.7,1.3,1.3,2.9,1.7,5c0.4,2.1,0.6,4.6,0.6,7.7c0,3-0.3,5.6-0.8,7.8
		c-0.5,2.2-1.2,4.1-2.1,5.6c-0.9,1.5-1.8,2.8-2.9,3.8s-2.2,1.7-3.3,2.3c-1.1,0.6-2.2,0.9-3.2,1.2s-1.9,0.3-2.7,0.4l-0.3-1.3
		c0.9-0.2,1.7-0.6,2.5-1.3c0.7-0.6,1.3-1.6,1.8-3c0.5-1.4,0.9-3.3,1.1-5.7c0.3-2.4,0.4-5.5,0.4-9.2c0-2.6-0.1-4.7-0.4-6.2
		c-0.2-1.6-0.5-2.7-0.9-3.5c-0.4-0.8-0.8-1.3-1.3-1.6c-0.5-0.3-1-0.4-1.5-0.4c-0.6,0-1.1,0.2-1.6,0.5c-0.5,0.3-0.8,0.7-1.2,1.1
		c-0.3,0.4-0.6,0.8-0.9,1.2c-0.2,0.4-0.4,0.7-0.6,0.9v20.6c0,0.3,0,0.6-0.1,1c-0.1,0.4-0.3,0.7-0.6,1.1c-0.3,0.3-0.8,0.6-1.4,0.9
		c-0.6,0.2-1.5,0.4-2.6,0.4c-1.1,0-2-0.1-2.6-0.4c-0.6-0.3-1.1-0.6-1.4-0.9c-0.3-0.3-0.5-0.7-0.6-1.1c-0.1-0.4-0.1-0.7-0.1-0.9V17.9
		c0-0.6-0.1-1.1-0.4-1.6c-0.3-0.4-0.7-0.7-1.4-0.7c-0.3,0-0.7,0.1-0.9,0.2c-0.3,0.1-0.5,0.3-0.8,0.5l-0.6-0.7c0.5-0.4,1-0.8,1.6-1.2
		c0.6-0.4,1.2-0.7,1.9-1c0.7-0.3,1.4-0.5,2.2-0.7c0.8-0.2,1.6-0.3,2.5-0.3c1.3,0,2.4,0.2,3.1,0.5s1.3,0.8,1.6,1.3
		c0.3,0.5,0.6,1.1,0.6,1.7c0.1,0.6,0.1,1.1,0.1,1.6V34.3z"/>
</g>
<g>
	<path class="st1" d="M169.7,30.1c-0.4-2.1-0.9-4-1.6-5.7s-1.5-3.3-2.5-4.6s-2.1-2.3-3.3-3.1c-1.2-0.7-2.6-1.1-4-1.1
		c-0.8,0-1.6,0.1-2.2,0.3c-0.7,0.2-1.2,0.4-1.7,0.7c-0.5,0.3-0.9,0.5-1.2,0.8c-0.3,0.3-0.5,0.4-0.7,0.6l-0.8-1.1
		c0.5-0.6,1.1-1.2,1.8-1.8c0.7-0.6,1.5-1,2.3-1.4c0.8-0.4,1.7-0.7,2.7-0.9c0.9-0.2,1.9-0.3,2.8-0.3c3,0,5.7,0.7,8,2s4.2,3.2,5.8,5.6
		c1.5,2.4,2.7,5.4,3.5,8.8c0.8,3.4,1.2,7.2,1.2,11.4c0,3.4-0.3,6.4-1,8.9c-0.7,2.6-1.7,4.7-2.9,6.5c-1.3,1.7-2.8,3-4.6,3.9
		s-3.9,1.3-6.1,1.3c-1.6,0-3.2-0.3-4.8-0.8c-1.6-0.6-3.1-1.5-4.4-2.8c-1.3-1.3-2.4-2.9-3.3-5s-1.3-4.6-1.3-7.6
		c0-2.6,0.4-4.9,1.1-6.9s1.7-3.7,2.9-5.1c1.2-1.4,2.7-2.4,4.3-3.2c1.6-0.7,3.3-1.1,5.1-1.1c0.7,0,1.3,0.1,1.9,0.2s1,0.3,1.4,0.4
		s0.8,0.3,1.1,0.5S169.5,29.9,169.7,30.1z M170.1,43.7c0-0.2,0-0.7,0-1.4c0-0.7,0-1.5-0.1-2.4c0-0.9-0.1-1.8-0.2-2.9
		s-0.3-1.9-0.5-2.8c-0.5-0.6-1-1.2-1.6-1.7s-1.4-0.8-2.3-0.8c-1.6,0-2.8,1-3.5,3.1c-0.8,2.1-1.1,5.3-1.1,9.7c0,1.9,0.1,3.7,0.3,5.3
		c0.2,1.6,0.4,3,0.8,4.1c0.4,1.2,0.8,2,1.4,2.7c0.6,0.6,1.2,1,2,1C168.4,57.8,170.1,53.1,170.1,43.7z"/>
	<path class="st1" d="M183.5,44.6c0-2.7,0.4-5.1,1.2-7.1c0.8-2,1.8-3.7,3.1-5.1c1.3-1.4,2.8-2.4,4.5-3.1c1.7-0.7,3.5-1,5.4-1
		s3.7,0.3,5.4,0.9s3.2,1.6,4.5,2.9c1.3,1.3,2.3,2.9,3.1,4.9s1.2,4.3,1.2,7c0,2.7-0.4,5.1-1.2,7.2s-1.8,3.8-3.1,5.2s-2.8,2.5-4.5,3.2
		c-1.7,0.7-3.5,1.1-5.4,1.1s-3.7-0.3-5.4-1c-1.7-0.7-3.2-1.7-4.5-3.1c-1.3-1.4-2.3-3.1-3.1-5.1C183.8,49.7,183.5,47.3,183.5,44.6z
		 M202.4,44.3c0-1.6-0.1-3.2-0.2-4.8c-0.1-1.5-0.3-2.9-0.7-4.1c-0.3-1.2-0.8-2.1-1.4-2.9s-1.4-1.1-2.4-1.1c-1,0-1.8,0.4-2.4,1.1
		c-0.6,0.8-1.1,1.7-1.4,3c-0.3,1.2-0.5,2.6-0.6,4.2c-0.1,1.6-0.2,3.2-0.2,4.8s0.1,3.3,0.2,4.8c0.1,1.6,0.3,3,0.6,4.2
		c0.3,1.2,0.8,2.2,1.4,3c0.6,0.8,1.4,1.1,2.4,1.1c1,0,1.8-0.4,2.4-1.2s1.1-1.8,1.4-3.1c0.3-1.3,0.5-2.7,0.7-4.3
		C202.4,47.6,202.4,46,202.4,44.3z"/>
</g>
</svg>
