<?xml version="1.0" encoding="utf-8"?>
<!-- Generator: Adobe Illustrator 24.0.1, SVG Export Plug-In . SVG Version: 6.00 Build 0)  -->
<svg version="1.1" id="Calque_1" xmlns="http://www.w3.org/2000/svg" xmlns:xlink="http://www.w3.org/1999/xlink" x="0px" y="0px"
	 viewBox="0 0 270 349" style="enable-background:new 0 0 270 349;" xml:space="preserve">
<style type="text/css">
	.st0{fill:#CCCCCC;}
</style>
<g>
	<path class="st0" d="M227.5,51h-29.9L194,25.4c-1.2-8.3-9-15.1-17.4-15.1H95.3c-8.4,0-16.2,6.8-17.4,15.1L74.4,51H44.5
		C27.7,51,14,64.7,14,81.5v10.2h244V81.5C258,64.7,244.3,51,227.5,51z M97.8,30.7h76.5l2.8,20.3H94.9L97.8,30.7z"/>
	<path class="st0" d="M232.6,112H39.4c-11.2,0-19.5,9.1-18.5,20.3l16.6,183.2c1,11.1,11,20.2,22.2,20.2h152.5
		c11.2,0,21.2-9.1,22.2-20.2l16.6-183.2C252.1,121.1,243.8,112,232.6,112z M95.3,295H64.8L54.7,152.7h40.7V295z M156.3,295h-40.7
		V152.7h40.7V295z M207.2,295h-30.5V152.7h40.7L207.2,295z"/>
</g>
</svg>
